<svg width="16" height="16" fill="none" xmlns="http://www.w3.org/2000/svg"><g clip-path="url(#a)"><mask id="b" fill="#fff"><path d="M2.418 16h11.164c1.17 0 2.122-.951 2.122-2.121V3.307c0-1.17-.951-2.122-2.122-2.122h-.841V.593A.594.594 0 0 0 12.148 0a.594.594 0 0 0-.592.593v.592H4.444V.593A.594.594 0 0 0 3.852 0a.594.594 0 0 0-.593.593v.592h-.841c-1.17 0-2.122.951-2.122 2.122v10.572c0 1.17.951 2.121 2.122 2.121ZM1.48 3.307c0-.516.421-.937.937-.937h.841v.593c0 .326.267.593.593.593a.594.594 0 0 0 .592-.593V2.37h7.112v.593c0 .326.266.593.592.593a.594.594 0 0 0 .593-.593V2.37h.841c.516 0 .936.421.936.937v1.73H1.481v-1.73Zm0 2.915h13.037v7.657c0 .515-.42.936-.936.936H2.418a.938.938 0 0 1-.937-.936V6.222Z"/></mask><path d="M2.418 16h11.164c1.17 0 2.122-.951 2.122-2.121V3.307c0-1.17-.951-2.122-2.122-2.122h-.841V.593A.594.594 0 0 0 12.148 0a.594.594 0 0 0-.592.593v.592H4.444V.593A.594.594 0 0 0 3.852 0a.594.594 0 0 0-.593.593v.592h-.841c-1.17 0-2.122.951-2.122 2.122v10.572c0 1.17.951 2.121 2.122 2.121ZM1.48 3.307c0-.516.421-.937.937-.937h.841v.593c0 .326.267.593.593.593a.594.594 0 0 0 .592-.593V2.37h7.112v.593c0 .326.266.593.592.593a.594.594 0 0 0 .593-.593V2.37h.841c.516 0 .936.421.936.937v1.73H1.481v-1.73Zm0 2.915h13.037v7.657c0 .515-.42.936-.936.936H2.418a.938.938 0 0 1-.937-.936V6.222Z" fill="#BEC5CC"/><path d="M12.74 1.185h-1.583V2.77h1.584V1.185Zm-1.184 0V2.77h1.583V1.185h-1.583Zm-7.112 0H2.861V2.77h1.583V1.185Zm-1.185 0V2.77h1.584V1.185H3.259Zm0 1.185h1.584V.787H3.259V2.37Zm1.185 0V.787H2.861V2.37h1.583Zm7.112 0h1.583V.787h-1.583V2.37Zm1.185 0V.787h-1.584V2.37h1.584Zm1.777 2.667V6.62h1.584V5.037h-1.584Zm-13.037 0H-.102V6.62h1.583V5.037Zm0 1.185V4.64H-.102v1.583h1.583Zm13.037 0h1.584V4.64h-1.584v1.583Zm-12.1 11.361h11.164v-3.166H2.418v3.166Zm11.164 0a3.707 3.707 0 0 0 3.705-3.704H14.12a.54.54 0 0 1-.538.538v3.166Zm3.705-3.704V3.307H14.12v10.572h3.167Zm0-10.572a3.707 3.707 0 0 0-3.705-3.705v3.167a.54.54 0 0 1 .538.538h3.167ZM13.582-.398h-.841v3.167h.841V-.398Zm.742 1.583V.593h-3.167v.592h3.167Zm0-.592a2.178 2.178 0 0 0-2.176-2.176v3.166a.99.99 0 0 1-.99-.99h3.166Zm-2.176-2.176c-1.2 0-2.176.975-2.176 2.176h3.167a.99.99 0 0 1-.99.99v-3.166ZM9.972.593v.592h3.167V.593H9.972Zm1.584-.991H4.444v3.167h7.112V-.398ZM6.028 1.185V.593H2.86v.592h3.167Zm0-.592a2.178 2.178 0 0 0-2.176-2.176v3.166a.989.989 0 0 1-.99-.99h3.166ZM3.852-1.583c-1.2 0-2.176.975-2.176 2.176h3.167a.99.99 0 0 1-.991.99v-3.166ZM1.676.593v.592h3.167V.593H1.676Zm1.583-.991h-.841v3.167h.841V-.398Zm-.841 0a3.707 3.707 0 0 0-3.705 3.705H1.88a.54.54 0 0 1 .538-.538V-.398Zm-3.705 3.705v10.572H1.88V3.307h-3.167Zm0 10.572a3.707 3.707 0 0 0 3.705 3.704v-3.166a.54.54 0 0 1-.538-.538h-3.167ZM3.065 3.307a.645.645 0 0 1-.647.647V.787c-1.39 0-2.52 1.13-2.52 2.52h3.167Zm-.647.647h.841V.787h-.841v3.167ZM1.676 2.37v.593h3.167V2.37H1.676Zm0 .593c0 1.2.975 2.176 2.176 2.176V1.972a.99.99 0 0 1 .99.991H1.677Zm2.176 2.176c1.2 0 2.176-.976 2.176-2.176H2.86a.99.99 0 0 1 .99-.99v3.166Zm2.176-2.176V2.37H2.86v.593h3.167Zm-1.584.99h7.112V.788H4.444v3.167ZM9.972 2.37v.593h3.167V2.37H9.972Zm0 .593c0 1.2.976 2.176 2.176 2.176V1.972a.99.99 0 0 1 .99.991H9.973Zm2.176 2.176c1.2 0 2.176-.976 2.176-2.176h-3.167a.99.99 0 0 1 .991-.99v3.166Zm2.176-2.176V2.37h-3.167v.593h3.167Zm-1.583.99h.841V.788h-.841v3.167Zm.841 0a.645.645 0 0 1-.647-.646h3.167c0-1.39-1.13-2.52-2.52-2.52v3.167Zm-.647-.646v1.73h3.167v-1.73h-3.167Zm1.583.147H1.481V6.62h13.037V3.454ZM3.065 5.037v-1.73H-.102v1.73h3.167ZM1.48 7.806h13.037V4.639H1.481v3.167Zm11.454-1.584v7.657h3.167V6.222h-3.167Zm0 7.657c0-.36.288-.648.647-.648v3.167c1.39 0 2.52-1.13 2.52-2.52h-3.167Zm.647-.648H2.418v3.167h11.164v-3.167Zm-11.164 0c.359 0 .647.289.647.648H-.102c0 1.39 1.13 2.52 2.52 2.52V13.23Zm.647.648V6.222H-.102v7.657h3.167Z" fill="#BEC5CC" mask="url(#b)"/></g><defs><clipPath id="a"><path fill="#fff" d="M0 0h16v16H0z"/></clipPath></defs></svg>