<svg width="20" height="18" fill="none" xmlns="http://www.w3.org/2000/svg"><path d="M18.163 12.273a.806.806 0 0 0-.816.818v2.045c0 .716-.612 1.228-1.225 1.228h-2.04a.806.806 0 0 0-.817.818c0 .511.306.818.817.818h2.04a2.855 2.855 0 0 0 2.857-2.864v-2.045c0-.41-.408-.818-.816-.818ZM14.082 1.636h2.04c.715 0 1.225.614 1.225 1.228v2.045c0 .41.306.818.816.818s.817-.307.817-.818V2.864C18.98 1.33 17.755 0 16.122 0h-2.04a.806.806 0 0 0-.817.818c0 .512.409.818.817.818ZM5.918 16.364h-2.04c-.715 0-1.225-.614-1.225-1.228v-2.045c0-.41-.306-.818-.816-.818s-.817.409-.817.818v2.045C1.02 16.67 2.245 18 3.878 18h2.04a.806.806 0 0 0 .817-.818.806.806 0 0 0-.817-.818ZM1.837 5.727a.806.806 0 0 0 .816-.818V2.864c0-.716.612-1.228 1.225-1.228h2.04a.806.806 0 0 0 .817-.818A.806.806 0 0 0 5.918 0h-2.04C2.347 0 1.02 1.33 1.02 2.864v2.045c0 .41.409.818.817.818Z" fill="#fff"/><path d="M14.082 15.136a2.05 2.05 0 0 0 2.04-2.045V11.25H3.878v1.84a2.05 2.05 0 0 0 2.04 2.046h8.164Zm5.102-6.954h-3.062V4.909a2.05 2.05 0 0 0-2.04-2.045H5.918a2.05 2.05 0 0 0-2.04 2.045v3.478H.816A.806.806 0 0 0 0 9.205c0 .511.306.818.816.818h18.368A.806.806 0 0 0 20 9.205c0-.512-.408-1.023-.816-1.023Z" fill="#fff"/></svg>