<svg width="17" height="18" fill="none" xmlns="http://www.w3.org/2000/svg"><path d="M15.039 0H1.962C1.442 0 .942.203.575.565A1.912 1.912 0 0 0 0 1.928v15.428a.635.635 0 0 0 .376.583.665.665 0 0 0 .696-.088l3.505-2.873 3.119 2.532a1.321 1.321 0 0 0 1.674 0l3.053-2.532 3.505 2.873a.661.661 0 0 0 .97-.148.635.635 0 0 0 .102-.347V1.928a1.91 1.91 0 0 0-.575-1.363A1.979 1.979 0 0 0 15.04 0Zm-1.962 10.928H3.923a.66.66 0 0 1-.462-.188.638.638 0 0 1 0-.91.66.66 0 0 1 .462-.188h9.154a.66.66 0 0 1 .462.189.637.637 0 0 1 0 .909.66.66 0 0 1-.462.188Zm0-3.214H3.923a.66.66 0 0 1-.462-.188.637.637 0 0 1 0-.91.66.66 0 0 1 .462-.188h9.154a.66.66 0 0 1 .462.188.637.637 0 0 1 0 .91.66.66 0 0 1-.462.188Zm0-3.214H3.923a.66.66 0 0 1-.462-.189.637.637 0 0 1 0-.909.66.66 0 0 1 .462-.188h9.154a.66.66 0 0 1 .462.188.637.637 0 0 1 0 .91.66.66 0 0 1-.462.188Z" fill="#fff"/></svg>