<svg width="17" height="18" viewBox="0 0 17 18" fill="none" xmlns="http://www.w3.org/2000/svg">
<path d="M15.0385 0H1.96154C1.44131 0 0.942382 0.203176 0.574522 0.564833C0.206662 0.926489 8.64886e-07 1.417 8.64886e-07 1.92846V17.3561C-0.000201354 17.4784 0.0350611 17.5982 0.101652 17.7014C0.168242 17.8047 0.2634 17.8871 0.375962 17.9391C0.488524 17.991 0.613823 18.0103 0.737161 17.9948C0.860498 17.9792 0.97676 17.9293 1.07231 17.8511L4.57692 14.9777L7.69577 17.5104C7.93075 17.7028 8.22688 17.8082 8.53269 17.8082C8.8385 17.8082 9.13464 17.7028 9.36961 17.5104L12.4231 14.9777L15.9277 17.8511C16.0453 17.9469 16.1934 17.9992 16.3462 17.999C16.4409 17.9995 16.5346 17.9797 16.6208 17.9411C16.7343 17.8895 16.8303 17.8069 16.8975 17.7032C16.9647 17.5995 17.0003 17.4791 17 17.3561V1.92846C17 1.417 16.7933 0.926489 16.4255 0.564833C16.0576 0.203176 15.5587 0 15.0385 0ZM13.0769 10.9279H3.92308C3.74967 10.9279 3.58336 10.8602 3.46074 10.7397C3.33812 10.6191 3.26923 10.4556 3.26923 10.2851C3.26923 10.1146 3.33812 9.95113 3.46074 9.83057C3.58336 9.71002 3.74967 9.6423 3.92308 9.6423H13.0769C13.2503 9.6423 13.4166 9.71002 13.5393 9.83057C13.6619 9.95113 13.7308 10.1146 13.7308 10.2851C13.7308 10.4556 13.6619 10.6191 13.5393 10.7397C13.4166 10.8602 13.2503 10.9279 13.0769 10.9279ZM13.0769 7.71384H3.92308C3.74967 7.71384 3.58336 7.64611 3.46074 7.52556C3.33812 7.40501 3.26923 7.2415 3.26923 7.07102C3.26923 6.90053 3.33812 6.73703 3.46074 6.61648C3.58336 6.49592 3.74967 6.4282 3.92308 6.4282H13.0769C13.2503 6.4282 13.4166 6.49592 13.5393 6.61648C13.6619 6.73703 13.7308 6.90053 13.7308 7.07102C13.7308 7.2415 13.6619 7.40501 13.5393 7.52556C13.4166 7.64611 13.2503 7.71384 13.0769 7.71384ZM13.0769 4.49974H3.92308C3.74967 4.49974 3.58336 4.43201 3.46074 4.31146C3.33812 4.19091 3.26923 4.0274 3.26923 3.85692C3.26923 3.68643 3.33812 3.52293 3.46074 3.40238C3.58336 3.28182 3.74967 3.2141 3.92308 3.2141H13.0769C13.2503 3.2141 13.4166 3.28182 13.5393 3.40238C13.6619 3.52293 13.7308 3.68643 13.7308 3.85692C13.7308 4.0274 13.6619 4.19091 13.5393 4.31146C13.4166 4.43201 13.2503 4.49974 13.0769 4.49974Z" fill="white"/>
</svg>
