<svg width="16" height="16" viewBox="0 0 16 16" fill="none" xmlns="http://www.w3.org/2000/svg">
<g clip-path="url(#clip0_1_584)">
<mask id="path-1-inside-1_1_584" fill="white">
<path d="M2.41775 16H13.5822C14.7526 16 15.7037 15.0489 15.7037 13.8785V3.30665C15.7037 2.13628 14.7526 1.18516 13.5822 1.18516H12.7407V0.592582C12.7407 0.266652 12.474 0 12.1481 0C11.8222 0 11.5555 0.266652 11.5555 0.592582V1.18516H4.44443V0.592582C4.44443 0.266652 4.17773 0 3.8518 0C3.52587 0 3.25922 0.266652 3.25922 0.592582V1.18516H2.41775C1.24738 1.18516 0.296265 2.13628 0.296265 3.30665V13.8785C0.296265 15.0489 1.24738 16 2.41775 16V16ZM1.48148 3.30665C1.48148 2.79111 1.90221 2.37038 2.41775 2.37038H3.25922V2.96296C3.25922 3.28889 3.52587 3.55554 3.8518 3.55554C4.17773 3.55554 4.44439 3.28889 4.44439 2.96296V2.37038H11.5555V2.96296C11.5555 3.28889 11.8222 3.55554 12.1481 3.55554C12.474 3.55554 12.7407 3.28889 12.7407 2.96296V2.37038H13.5821C14.0977 2.37038 14.5184 2.79111 14.5184 3.30665V5.03704H1.48148V3.30665ZM1.48148 6.22221H14.5185V13.8785C14.5185 14.3941 14.0978 14.8148 13.5822 14.8148H2.41775C1.90221 14.8148 1.48148 14.3941 1.48148 13.8785V6.22221Z"/>
</mask>
<path d="M2.41775 16H13.5822C14.7526 16 15.7037 15.0489 15.7037 13.8785V3.30665C15.7037 2.13628 14.7526 1.18516 13.5822 1.18516H12.7407V0.592582C12.7407 0.266652 12.474 0 12.1481 0C11.8222 0 11.5555 0.266652 11.5555 0.592582V1.18516H4.44443V0.592582C4.44443 0.266652 4.17773 0 3.8518 0C3.52587 0 3.25922 0.266652 3.25922 0.592582V1.18516H2.41775C1.24738 1.18516 0.296265 2.13628 0.296265 3.30665V13.8785C0.296265 15.0489 1.24738 16 2.41775 16V16ZM1.48148 3.30665C1.48148 2.79111 1.90221 2.37038 2.41775 2.37038H3.25922V2.96296C3.25922 3.28889 3.52587 3.55554 3.8518 3.55554C4.17773 3.55554 4.44439 3.28889 4.44439 2.96296V2.37038H11.5555V2.96296C11.5555 3.28889 11.8222 3.55554 12.1481 3.55554C12.474 3.55554 12.7407 3.28889 12.7407 2.96296V2.37038H13.5821C14.0977 2.37038 14.5184 2.79111 14.5184 3.30665V5.03704H1.48148V3.30665ZM1.48148 6.22221H14.5185V13.8785C14.5185 14.3941 14.0978 14.8148 13.5822 14.8148H2.41775C1.90221 14.8148 1.48148 14.3941 1.48148 13.8785V6.22221Z" fill="#BEC5CC"/>
<path d="M12.7407 1.18516H11.1573V2.76855H12.7407V1.18516ZM11.5555 1.18516V2.76855H13.1389V1.18516H11.5555ZM4.44443 1.18516H2.86105V2.76855H4.44443V1.18516ZM3.25922 1.18516V2.76855H4.84261V1.18516H3.25922ZM3.25922 2.37038H4.84261V0.786991H3.25922V2.37038ZM4.44439 2.37038V0.786991H2.861V2.37038H4.44439ZM11.5555 2.37038H13.1389V0.786991H11.5555V2.37038ZM12.7407 2.37038V0.786991H11.1573V2.37038H12.7407ZM14.5184 5.03704V6.62043H16.1018V5.03704H14.5184ZM1.48148 5.03704H-0.101907V6.62043H1.48148V5.03704ZM1.48148 6.22221V4.63882H-0.101907V6.22221H1.48148ZM14.5185 6.22221H16.1019V4.63882H14.5185V6.22221ZM2.41775 17.5834H13.5822V14.4166H2.41775V17.5834ZM13.5822 17.5834C15.627 17.5834 17.2871 15.9234 17.2871 13.8785H14.1203C14.1203 14.1744 13.8781 14.4166 13.5822 14.4166V17.5834ZM17.2871 13.8785V3.30665H14.1203V13.8785H17.2871ZM17.2871 3.30665C17.2871 1.2618 15.627 -0.398221 13.5822 -0.398221V2.76855C13.8781 2.76855 14.1203 3.01076 14.1203 3.30665H17.2871ZM13.5822 -0.398221H12.7407V2.76855H13.5822V-0.398221ZM14.3241 1.18516V0.592582H11.1573V1.18516H14.3241ZM14.3241 0.592582C14.3241 -0.608003 13.3483 -1.58338 12.1481 -1.58338V1.58338C11.5997 1.58338 11.1573 1.14131 11.1573 0.592582H14.3241ZM12.1481 -1.58338C10.9477 -1.58338 9.97213 -0.607827 9.97213 0.592582H13.1389C13.1389 1.14113 12.6966 1.58338 12.1481 1.58338V-1.58338ZM9.97213 0.592582V1.18516H13.1389V0.592582H9.97213ZM11.5555 -0.398221H4.44443V2.76855H11.5555V-0.398221ZM6.02782 1.18516V0.592582H2.86105V1.18516H6.02782ZM6.02782 0.592582C6.02782 -0.607999 5.05204 -1.58338 3.8518 -1.58338V1.58338C3.30343 1.58338 2.86105 1.1413 2.86105 0.592582H6.02782ZM3.8518 -1.58338C2.65139 -1.58338 1.67584 -0.607827 1.67584 0.592582H4.84261C4.84261 1.14113 4.40035 1.58338 3.8518 1.58338V-1.58338ZM1.67584 0.592582V1.18516H4.84261V0.592582H1.67584ZM3.25922 -0.398221H2.41775V2.76855H3.25922V-0.398221ZM2.41775 -0.398221C0.372904 -0.398221 -1.28712 1.2618 -1.28712 3.30665H1.87965C1.87965 3.01076 2.12186 2.76855 2.41775 2.76855V-0.398221ZM-1.28712 3.30665V13.8785H1.87965V3.30665H-1.28712ZM-1.28712 13.8785C-1.28712 15.9234 0.372905 17.5834 2.41775 17.5834V14.4166C2.12186 14.4166 1.87965 14.1744 1.87965 13.8785H-1.28712ZM3.06486 3.30665C3.06486 3.66559 2.77669 3.95376 2.41775 3.95376V0.786991C1.02773 0.786991 -0.101907 1.91663 -0.101907 3.30665H3.06486ZM2.41775 3.95376H3.25922V0.786991H2.41775V3.95376ZM1.67584 2.37038V2.96296H4.84261V2.37038H1.67584ZM1.67584 2.96296C1.67584 4.16337 2.65139 5.13892 3.8518 5.13892V1.97215C4.40035 1.97215 4.84261 2.41441 4.84261 2.96296H1.67584ZM3.8518 5.13892C5.05221 5.13892 6.02777 4.16337 6.02777 2.96296H2.861C2.861 2.41441 3.30325 1.97215 3.8518 1.97215V5.13892ZM6.02777 2.96296V2.37038H2.861V2.96296H6.02777ZM4.44439 3.95376H11.5555V0.786991H4.44439V3.95376ZM9.97213 2.37038V2.96296H13.1389V2.37038H9.97213ZM9.97213 2.96296C9.97213 4.16337 10.9477 5.13892 12.1481 5.13892V1.97215C12.6966 1.97215 13.1389 2.41441 13.1389 2.96296H9.97213ZM12.1481 5.13892C13.3485 5.13892 14.3241 4.16337 14.3241 2.96296H11.1573C11.1573 2.41441 11.5995 1.97215 12.1481 1.97215V5.13892ZM14.3241 2.96296V2.37038H11.1573V2.96296H14.3241ZM12.7407 3.95376H13.5821V0.786991H12.7407V3.95376ZM13.5821 3.95376C13.2232 3.95376 12.935 3.66559 12.935 3.30665H16.1018C16.1018 1.91663 14.9722 0.786991 13.5821 0.786991V3.95376ZM12.935 3.30665V5.03704H16.1018V3.30665H12.935ZM14.5184 3.45366H1.48148V6.62043H14.5184V3.45366ZM3.06486 5.03704V3.30665H-0.101907V5.03704H3.06486ZM1.48148 7.80559H14.5185V4.63882H1.48148V7.80559ZM12.9351 6.22221V13.8785H16.1019V6.22221H12.9351ZM12.9351 13.8785C12.9351 13.5196 13.2233 13.2314 13.5822 13.2314V16.3982C14.9723 16.3982 16.1019 15.2685 16.1019 13.8785H12.9351ZM13.5822 13.2314H2.41775V16.3982H13.5822V13.2314ZM2.41775 13.2314C2.77669 13.2314 3.06486 13.5196 3.06486 13.8785H-0.101907C-0.101907 15.2685 1.02773 16.3982 2.41775 16.3982V13.2314ZM3.06486 13.8785V6.22221H-0.101907V13.8785H3.06486Z" fill="#BEC5CC" mask="url(#path-1-inside-1_1_584)"/>
</g>
<defs>
<clipPath id="clip0_1_584">
<rect width="16" height="16" fill="white"/>
</clipPath>
</defs>
</svg>
