<svg width="20" height="20" viewBox="0 0 20 20" fill="none" xmlns="http://www.w3.org/2000/svg">
<path fill-rule="evenodd" clip-rule="evenodd" d="M6.00584 4.82739C5.6804 4.50195 5.15277 4.50195 4.82733 4.82739C4.50189 5.15283 4.50189 5.68046 4.82733 6.0059L8.82141 9.99998L4.82733 13.9941C4.50189 14.3195 4.50189 14.8471 4.82733 15.1726C5.15277 15.498 5.6804 15.498 6.00584 15.1726L9.99992 11.1785L13.994 15.1726C14.3194 15.498 14.8471 15.498 15.1725 15.1726C15.4979 14.8471 15.4979 14.3195 15.1725 13.9941L11.1784 9.99998L15.1725 6.0059C15.4979 5.68046 15.4979 5.15283 15.1725 4.82739C14.8471 4.50195 14.3194 4.50195 13.994 4.82739L9.99992 8.82147L6.00584 4.82739Z" fill="white"/>
</svg>
