<svg width="20" height="18" viewBox="0 0 20 18" fill="none" xmlns="http://www.w3.org/2000/svg">
<path d="M18.1631 12.2727C17.7551 12.2727 17.3469 12.5795 17.3469 13.0909V15.1363C17.3469 15.8522 16.7346 16.3636 16.1224 16.3636H14.0816C13.6734 16.3636 13.2653 16.6704 13.2653 17.1818C13.2653 17.6931 13.5714 18 14.0816 18H16.1224C17.653 18 18.9794 16.7727 18.9794 15.1363V13.0909C18.9794 12.6818 18.5713 12.2727 18.1631 12.2727Z" fill="white"/>
<path d="M14.0816 1.63637H16.1224C16.8367 1.63637 17.3469 2.24999 17.3469 2.86363V4.90908C17.3469 5.31817 17.653 5.72726 18.1632 5.72726C18.6734 5.72726 18.9795 5.42045 18.9795 4.90908V2.86363C18.9795 1.32955 17.755 0 16.1224 0H14.0816C13.6735 0 13.2653 0.306819 13.2653 0.818178C13.2653 1.32955 13.6735 1.63637 14.0816 1.63637Z" fill="white"/>
<path d="M5.91833 16.3636H3.87752C3.16323 16.3636 2.65303 15.75 2.65303 15.1363V13.0909C2.65303 12.6818 2.34691 12.2727 1.8367 12.2727C1.32651 12.2727 1.02039 12.6818 1.02039 13.0909V15.1363C1.02039 16.6704 2.24487 18 3.87752 18H5.91833C6.32649 18 6.73465 17.6931 6.73465 17.1818C6.73465 16.6704 6.32649 16.3636 5.91833 16.3636Z" fill="white"/>
<path d="M1.83676 5.72726C2.24493 5.72726 2.65309 5.42045 2.65309 4.90908V2.86363C2.65309 2.14772 3.26534 1.63637 3.87758 1.63637H5.9184C6.32656 1.63637 6.73471 1.32955 6.73471 0.818178C6.73471 0.306819 6.32656 0 5.9184 0H3.87758C2.34697 0 1.02045 1.32955 1.02045 2.86363V4.90908C1.02045 5.31817 1.42861 5.72726 1.83676 5.72726Z" fill="white"/>
<path d="M14.0816 15.1363C15.2041 15.1363 16.1225 14.2159 16.1225 13.0909V11.25H3.87756V13.0909C3.87756 14.2159 4.79593 15.1363 5.91838 15.1363H14.0816Z" fill="white"/>
<path d="M19.1837 8.18191H16.1225V4.90922C16.1225 3.78422 15.2041 2.86377 14.0816 2.86377H5.91836C4.79591 2.86377 3.87754 3.78422 3.87754 4.90922V8.38651H0.816328C0.408159 8.38651 0 8.69331 0 9.20471C0 9.716 0.306119 10.0228 0.816328 10.0228H19.1837C19.5918 10.0228 20 9.716 20 9.20471C20 8.69331 19.5918 8.18191 19.1837 8.18191Z" fill="white"/>
</svg>
