<svg width="13" height="13" viewBox="0 0 13 13" fill="none" xmlns="http://www.w3.org/2000/svg">
<path d="M1.70711 0.292893C1.31658 -0.0976311 0.683417 -0.0976311 0.292893 0.292893C-0.0976311 0.683417 -0.0976311 1.31658 0.292893 1.70711L5.08579 6.5L0.292893 11.2929C-0.0976311 11.6834 -0.0976311 12.3166 0.292893 12.7071C0.683417 13.0976 1.31658 13.0976 1.70711 12.7071L6.5 7.91421L11.2929 12.7071C11.6834 13.0976 12.3166 13.0976 12.7071 12.7071C13.0976 12.3166 13.0976 11.6834 12.7071 11.2929L7.91421 6.5L12.7071 1.70711C13.0976 1.31658 13.0976 0.683417 12.7071 0.292893C12.3166 -0.0976311 11.6834 -0.0976311 11.2929 0.292893L6.5 5.08579L1.70711 0.292893Z" fill="#5A6C74" fill-opacity="0.7"/>
</svg>
